<svg xmlns="http://www.w3.org/2000/svg" viewBox="0 0 100 100" width="100" height="100">
  <defs>
    <linearGradient id="g1" x1="0%" y1="0%" x2="100%" y2="100%">
      <stop offset="0%" stop-color="#311b92"/>
      <stop offset="50%" stop-color="#5e35b1"/>
      <stop offset="100%" stop-color="#1a237e"/>
    </linearGradient>
    <radialGradient id="g2" cx="50%" cy="50%">
      <stop offset="0%" stop-color="#b39ddb" stop-opacity="0.5"/>
      <stop offset="100%" stop-color="#b39ddb" stop-opacity="0"/>
    </radialGradient>
    <mask id="m1">
      <rect width="100" height="100" fill="white"/>
      <circle cx="50" cy="50" r="38" fill="black"/>
    </mask>
  </defs>
  <circle cx="50" cy="50" r="46" fill="url(#g2)"/>
  <circle cx="50" cy="50" r="44" fill="url(#g1)" mask="url(#m1)"/>
  <circle cx="50" cy="50" r="46" fill="none" stroke="#b39ddb" stroke-width="0.8" opacity="0.7"/>
  <g fill="none" stroke="#e040fb" stroke-width="0.8" opacity="0.9">
    <polygon points="50,2 54,8 50,12 46,8"/>
    <polygon points="50,2 54,8 50,12 46,8" transform="rotate(45 50 50)"/>
    <polygon points="50,2 54,8 50,12 46,8" transform="rotate(90 50 50)"/>
    <polygon points="50,2 54,8 50,12 46,8" transform="rotate(135 50 50)"/>
    <polygon points="50,2 54,8 50,12 46,8" transform="rotate(180 50 50)"/>
    <polygon points="50,2 54,8 50,12 46,8" transform="rotate(225 50 50)"/>
    <polygon points="50,2 54,8 50,12 46,8" transform="rotate(270 50 50)"/>
    <polygon points="50,2 54,8 50,12 46,8" transform="rotate(315 50 50)"/>
  </g>
  <g fill="#7c4dff" opacity="0.85">
    <polygon points="50,14 53,20 50,24 47,20" transform="rotate(22.5 50 50)"/>
    <polygon points="50,14 53,20 50,24 47,20" transform="rotate(67.5 50 50)"/>
    <polygon points="50,14 53,20 50,24 47,20" transform="rotate(112.5 50 50)"/>
    <polygon points="50,14 53,20 50,24 47,20" transform="rotate(157.5 50 50)"/>
    <polygon points="50,14 53,20 50,24 47,20" transform="rotate(202.5 50 50)"/>
    <polygon points="50,14 53,20 50,24 47,20" transform="rotate(247.5 50 50)"/>
    <polygon points="50,14 53,20 50,24 47,20" transform="rotate(292.5 50 50)"/>
    <polygon points="50,14 53,20 50,24 47,20" transform="rotate(337.5 50 50)"/>
  </g>
  <g stroke="#b39ddb" stroke-width="0.4" opacity="0.6" fill="none">
    <polygon points="50,4 84,24 84,76 50,96 16,76 16,24"/>
  </g>
  <circle cx="50" cy="50" r="42" fill="none" stroke="#ffffff" stroke-width="0.3" opacity="0.3"/>
</svg>
