<svg xmlns="http://www.w3.org/2000/svg" viewBox="0 0 100 100" width="100" height="100">
  <defs>
    <linearGradient id="g1" x1="0%" y1="0%" x2="100%" y2="100%">
      <stop offset="0%" stop-color="#bf360c"/>
      <stop offset="50%" stop-color="#e65100"/>
      <stop offset="100%" stop-color="#6d4c41"/>
    </linearGradient>
    <radialGradient id="g2" cx="50%" cy="50%">
      <stop offset="0%" stop-color="#ffab91" stop-opacity="0.5"/>
      <stop offset="100%" stop-color="#ffab91" stop-opacity="0"/>
    </radialGradient>
    <mask id="m1">
      <rect width="100" height="100" fill="white"/>
      <circle cx="50" cy="50" r="38" fill="black"/>
    </mask>
  </defs>
  <circle cx="50" cy="50" r="46" fill="url(#g2)"/>
  <circle cx="50" cy="50" r="44" fill="url(#g1)" mask="url(#m1)"/>
  <circle cx="50" cy="50" r="46" fill="none" stroke="#ffb74d" stroke-width="0.8" opacity="0.7"/>
  <g fill="#ff8a65" opacity="0.95">
    <path d="M50,2 C53,5 52,9 49,11 C46,9 47,5 50,2 Z" transform="rotate(0 50 50)"/>
    <path d="M50,2 C53,5 52,9 49,11 C46,9 47,5 50,2 Z" transform="rotate(40 50 50)"/>
    <path d="M50,2 C53,5 52,9 49,11 C46,9 47,5 50,2 Z" transform="rotate(80 50 50)"/>
    <path d="M50,2 C53,5 52,9 49,11 C46,9 47,5 50,2 Z" transform="rotate(120 50 50)"/>
    <path d="M50,2 C53,5 52,9 49,11 C46,9 47,5 50,2 Z" transform="rotate(160 50 50)"/>
    <path d="M50,2 C53,5 52,9 49,11 C46,9 47,5 50,2 Z" transform="rotate(200 50 50)"/>
    <path d="M50,2 C53,5 52,9 49,11 C46,9 47,5 50,2 Z" transform="rotate(240 50 50)"/>
    <path d="M50,2 C53,5 52,9 49,11 C46,9 47,5 50,2 Z" transform="rotate(280 50 50)"/>
    <path d="M50,2 C53,5 52,9 49,11 C46,9 47,5 50,2 Z" transform="rotate(320 50 50)"/>
  </g>
  <g fill="#d84315" opacity="0.9">
    <path d="M50,0 L51,4 L50,8 L49,4 Z" transform="rotate(20 50 50)"/>
    <path d="M50,0 L51,4 L50,8 L49,4 Z" transform="rotate(60 50 50)"/>
    <path d="M50,0 L51,4 L50,8 L49,4 Z" transform="rotate(100 50 50)"/>
    <path d="M50,0 L51,4 L50,8 L49,4 Z" transform="rotate(140 50 50)"/>
    <path d="M50,0 L51,4 L50,8 L49,4 Z" transform="rotate(180 50 50)"/>
    <path d="M50,0 L51,4 L50,8 L49,4 Z" transform="rotate(220 50 50)"/>
    <path d="M50,0 L51,4 L50,8 L49,4 Z" transform="rotate(260 50 50)"/>
    <path d="M50,0 L51,4 L50,8 L49,4 Z" transform="rotate(300 50 50)"/>
    <path d="M50,0 L51,4 L50,8 L49,4 Z" transform="rotate(340 50 50)"/>
  </g>
  <g fill="#ffe0b2" opacity="0.8">
    <circle cx="85" cy="15" r="0.9"/>
    <circle cx="15" cy="85" r="0.9"/>
    <circle cx="50" cy="3" r="0.7"/>
  </g>
  <circle cx="50" cy="50" r="42" fill="none" stroke="#ffd180" stroke-width="0.3" opacity="0.4"/>
</svg>
