<svg xmlns="http://www.w3.org/2000/svg" viewBox="0 0 100 100" width="100" height="100">
  <defs>
    <linearGradient id="g1" x1="0%" y1="0%" x2="100%" y2="100%">
      <stop offset="0%" stop-color="#00838f"/>
      <stop offset="50%" stop-color="#26c6da"/>
      <stop offset="100%" stop-color="#006064"/>
    </linearGradient>
    <radialGradient id="g2" cx="50%" cy="50%">
      <stop offset="0%" stop-color="#b2ebf2" stop-opacity="0.5"/>
      <stop offset="100%" stop-color="#b2ebf2" stop-opacity="0"/>
    </radialGradient>
    <mask id="m1">
      <rect width="100" height="100" fill="white"/>
      <circle cx="50" cy="50" r="38" fill="black"/>
    </mask>
  </defs>
  <circle cx="50" cy="50" r="46" fill="url(#g2)"/>
  <circle cx="50" cy="50" r="44" fill="url(#g1)" mask="url(#m1)"/>
  <g fill="none" stroke="#80deea" stroke-width="0.6" opacity="0.8">
    <circle cx="50" cy="50" r="45"/>
    <circle cx="50" cy="50" r="46.5"/>
    <circle cx="50" cy="50" r="48"/>
    <circle cx="50" cy="50" r="49.5" opacity="0.5"/>
  </g>
  <g fill="none" stroke="#ffffff" stroke-width="0.5" opacity="0.7">
    <path d="M10,50 Q30,44 50,50 T90,50"/>
    <path d="M10,50 Q30,44 50,50 T90,50" transform="rotate(45 50 50)"/>
    <path d="M10,50 Q30,44 50,50 T90,50" transform="rotate(90 50 50)"/>
    <path d="M10,50 Q30,44 50,50 T90,50" transform="rotate(135 50 50)"/>
    <path d="M10,50 Q30,44 50,50 T90,50" transform="rotate(180 50 50)"/>
    <path d="M10,50 Q30,44 50,50 T90,50" transform="rotate(225 50 50)"/>
    <path d="M10,50 Q30,44 50,50 T90,50" transform="rotate(270 50 50)"/>
    <path d="M10,50 Q30,44 50,50 T90,50" transform="rotate(315 50 50)"/>
  </g>
  <g fill="#ffffff" opacity="0.9">
    <circle cx="50" cy="3" r="1"/>
    <circle cx="97" cy="50" r="1"/>
    <circle cx="50" cy="97" r="1"/>
    <circle cx="3" cy="50" r="1"/>
  </g>
  <circle cx="50" cy="50" r="42" fill="none" stroke="#ffffff" stroke-width="0.3" opacity="0.4"/>
</svg>
