<svg xmlns="http://www.w3.org/2000/svg" viewBox="0 0 100 100" width="100" height="100">
  <defs>
    <linearGradient id="g1" x1="0%" y1="0%" x2="100%" y2="100%">
      <stop offset="0%" stop-color="#4dd0e1"/>
      <stop offset="50%" stop-color="#26c6da"/>
      <stop offset="100%" stop-color="#00838f"/>
    </linearGradient>
    <linearGradient id="crys" x1="0%" y1="0%" x2="100%" y2="100%">
      <stop offset="0%" stop-color="#b2ebf2"/>
      <stop offset="100%" stop-color="#0097a7"/>
    </linearGradient>
    <radialGradient id="g2" cx="50%" cy="50%">
      <stop offset="0%" stop-color="#e0f7fa" stop-opacity="0.6"/>
      <stop offset="100%" stop-color="#e0f7fa" stop-opacity="0"/>
    </radialGradient>
    <mask id="m1">
      <rect width="100" height="100" fill="white"/>
      <circle cx="50" cy="50" r="38" fill="black"/>
    </mask>
  </defs>
  <circle cx="50" cy="50" r="46" fill="url(#g2)"/>
  <circle cx="50" cy="50" r="44" fill="url(#g1)" mask="url(#m1)"/>
  <circle cx="50" cy="50" r="46" fill="none" stroke="#80deea" stroke-width="0.8" opacity="0.7"/>
  <g fill="url(#crys)" opacity="0.9" stroke="#b2ebf2" stroke-width="0.3">
    <polygon points="50,2 54,10 50,18 46,10"/>
    <polygon points="50,2 54,10 50,18 46,10" transform="rotate(60 50 50)"/>
    <polygon points="50,2 54,10 50,18 46,10" transform="rotate(120 50 50)"/>
    <polygon points="50,2 54,10 50,18 46,10" transform="rotate(180 50 50)"/>
    <polygon points="50,2 54,10 50,18 46,10" transform="rotate(240 50 50)"/>
    <polygon points="50,2 54,10 50,18 46,10" transform="rotate(300 50 50)"/>
  </g>
  <g fill="#e0f7fa" opacity="0.85">
    <polygon points="50,0 51.5,4 50,8 48.5,4" transform="rotate(30 50 50)"/>
    <polygon points="50,0 51.5,4 50,8 48.5,4" transform="rotate(90 50 50)"/>
    <polygon points="50,0 51.5,4 50,8 48.5,4" transform="rotate(150 50 50)"/>
    <polygon points="50,0 51.5,4 50,8 48.5,4" transform="rotate(210 50 50)"/>
    <polygon points="50,0 51.5,4 50,8 48.5,4" transform="rotate(270 50 50)"/>
    <polygon points="50,0 51.5,4 50,8 48.5,4" transform="rotate(330 50 50)"/>
  </g>
  <g fill="#ffffff" opacity="0.7">
    <polygon points="50,4 51,8 50,12 49,8" transform="rotate(60 50 50)"/>
    <polygon points="50,4 51,8 50,12 49,8" transform="rotate(180 50 50)"/>
    <polygon points="50,4 51,8 50,12 49,8" transform="rotate(300 50 50)"/>
  </g>
  <circle cx="50" cy="50" r="42" fill="none" stroke="#ffffff" stroke-width="0.3" opacity="0.4"/>
</svg>
