<svg xmlns="http://www.w3.org/2000/svg" viewBox="0 0 100 100" width="100" height="100">
  <defs>
    <linearGradient id="g1" x1="0%" y1="0%" x2="100%" y2="100%">
      <stop offset="0%" stop-color="#0d0221"/>
      <stop offset="50%" stop-color="#190b28"/>
      <stop offset="100%" stop-color="#2a0944"/>
    </linearGradient>
    <linearGradient id="ng" x1="0%" y1="0%" x2="100%" y2="100%">
      <stop offset="0%" stop-color="#00f5d4"/>
      <stop offset="50%" stop-color="#ff00aa"/>
      <stop offset="100%" stop-color="#f15bb5"/>
    </linearGradient>
    <mask id="m1">
      <rect width="100" height="100" fill="white"/>
      <circle cx="50" cy="50" r="38" fill="black"/>
    </mask>
  </defs>
  <circle cx="50" cy="50" r="44" fill="url(#g1)" mask="url(#m1)"/>
  <circle cx="50" cy="50" r="46" fill="none" stroke="#00f5d4" stroke-width="1.2" opacity="0.9"/>
  <circle cx="50" cy="50" r="48" fill="none" stroke="#ff00aa" stroke-width="0.6" opacity="0.7"/>
  <g fill="none" stroke="url(#ng)" stroke-width="0.8" opacity="0.95">
    <path d="M50,4 L52,8 L56,10 L52,12 L50,16 L48,12 L44,10 L48,8 Z"/>
    <path d="M50,4 L52,8 L56,10 L52,12 L50,16 L48,12 L44,10 L48,8 Z" transform="rotate(90 50 50)"/>
    <path d="M50,4 L52,8 L56,10 L52,12 L50,16 L48,12 L44,10 L48,8 Z" transform="rotate(180 50 50)"/>
    <path d="M50,4 L52,8 L56,10 L52,12 L50,16 L48,12 L44,10 L48,8 Z" transform="rotate(270 50 50)"/>
  </g>
  <g fill="#00f5d4" opacity="0.9">
    <circle cx="85" cy="15" r="1.5"/>
    <circle cx="15" cy="85" r="1.5"/>
  </g>
  <g fill="#ff00aa" opacity="0.9">
    <circle cx="85" cy="85" r="1.5"/>
    <circle cx="15" cy="15" r="1.5"/>
  </g>
  <g fill="#f15bb5" opacity="0.8">
    <circle cx="96" cy="50" r="1"/>
    <circle cx="4" cy="50" r="1"/>
    <circle cx="50" cy="96" r="1"/>
    <circle cx="50" cy="4" r="1"/>
  </g>
  <circle cx="50" cy="50" r="42" fill="none" stroke="#00f5d4" stroke-width="0.3" opacity="0.4"/>
</svg>
