<svg xmlns="http://www.w3.org/2000/svg" viewBox="0 0 100 100" width="100" height="100">
  <defs>
    <linearGradient id="g1" x1="0%" y1="0%" x2="100%" y2="100%">
      <stop offset="0%" stop-color="#f8c8c8"/>
      <stop offset="50%" stop-color="#e8b4a0"/>
      <stop offset="100%" stop-color="#b76e79"/>
    </linearGradient>
    <linearGradient id="rg" x1="0%" y1="0%" x2="100%" y2="100%">
      <stop offset="0%" stop-color="#ffe1e1"/>
      <stop offset="50%" stop-color="#f7b2bd"/>
      <stop offset="100%" stop-color="#c08081"/>
    </linearGradient>
    <radialGradient id="g2" cx="50%" cy="50%">
      <stop offset="0%" stop-color="#fff0f0" stop-opacity="0.5"/>
      <stop offset="100%" stop-color="#fff0f0" stop-opacity="0"/>
    </radialGradient>
    <mask id="m1">
      <rect width="100" height="100" fill="white"/>
      <circle cx="50" cy="50" r="38" fill="black"/>
    </mask>
  </defs>
  <circle cx="50" cy="50" r="46" fill="url(#g2)"/>
  <circle cx="50" cy="50" r="44" fill="url(#g1)" mask="url(#m1)"/>
  <circle cx="50" cy="50" r="44" fill="none" stroke="url(#rg)" stroke-width="1.2" mask="url(#m1)"/>
  <circle cx="50" cy="50" r="46" fill="none" stroke="#f7b2bd" stroke-width="0.6" opacity="0.8"/>
  <circle cx="50" cy="50" r="48" fill="none" stroke="#b76e79" stroke-width="0.4" opacity="0.6"/>
  <g fill="url(#rg)" opacity="0.95">
    <path d="M50,2 C53,5 52,9 49,11 C46,9 47,5 50,2 Z"/>
    <path d="M50,2 C53,5 52,9 49,11 C46,9 47,5 50,2 Z" transform="rotate(45 50 50)"/>
    <path d="M50,2 C53,5 52,9 49,11 C46,9 47,5 50,2 Z" transform="rotate(90 50 50)"/>
    <path d="M50,2 C53,5 52,9 49,11 C46,9 47,5 50,2 Z" transform="rotate(135 50 50)"/>
    <path d="M50,2 C53,5 52,9 49,11 C46,9 47,5 50,2 Z" transform="rotate(180 50 50)"/>
    <path d="M50,2 C53,5 52,9 49,11 C46,9 47,5 50,2 Z" transform="rotate(225 50 50)"/>
    <path d="M50,2 C53,5 52,9 49,11 C46,9 47,5 50,2 Z" transform="rotate(270 50 50)"/>
    <path d="M50,2 C53,5 52,9 49,11 C46,9 47,5 50,2 Z" transform="rotate(315 50 50)"/>
  </g>
  <g fill="#fff0f0" opacity="0.9">
    <circle cx="50" cy="3" r="1"/>
    <circle cx="85" cy="22" r="1"/>
    <circle cx="97" cy="50" r="1"/>
    <circle cx="85" cy="78" r="1"/>
    <circle cx="50" cy="97" r="1"/>
    <circle cx="15" cy="78" r="1"/>
    <circle cx="3" cy="50" r="1"/>
    <circle cx="15" cy="22" r="1"/>
  </g>
  <g fill="#f7b2bd" opacity="0.85">
    <path d="M50,0 L50.6,2 L52.6,2.6 L50.6,3.2 L50,5 L49.4,3.2 L47.4,2.6 L49.4,2 Z" transform="rotate(22.5 50 50)"/>
    <path d="M50,0 L50.6,2 L52.6,2.6 L50.6,3.2 L50,5 L49.4,3.2 L47.4,2.6 L49.4,2 Z" transform="rotate(112.5 50 50)"/>
    <path d="M50,0 L50.6,2 L52.6,2.6 L50.6,3.2 L50,5 L49.4,3.2 L47.4,2.6 L49.4,2 Z" transform="rotate(202.5 50 50)"/>
    <path d="M50,0 L50.6,2 L52.6,2.6 L50.6,3.2 L50,5 L49.4,3.2 L47.4,2.6 L49.4,2 Z" transform="rotate(292.5 50 50)"/>
  </g>
  <circle cx="50" cy="50" r="42" fill="none" stroke="#ffffff" stroke-width="0.3" opacity="0.5"/>
</svg>
