<svg xmlns="http://www.w3.org/2000/svg" viewBox="0 0 100 100" width="100" height="100">
  <defs>
    <linearGradient id="g1" x1="0%" y1="0%" x2="100%" y2="100%">
      <stop offset="0%" stop-color="#1b5e20"/>
      <stop offset="50%" stop-color="#2e7d32"/>
      <stop offset="100%" stop-color="#0d3b0f"/>
    </linearGradient>
    <radialGradient id="g2" cx="50%" cy="50%">
      <stop offset="0%" stop-color="#a5d6a7" stop-opacity="0.4"/>
      <stop offset="100%" stop-color="#a5d6a7" stop-opacity="0"/>
    </radialGradient>
    <mask id="m1">
      <rect width="100" height="100" fill="white"/>
      <circle cx="50" cy="50" r="38" fill="black"/>
    </mask>
  </defs>
  <circle cx="50" cy="50" r="46" fill="url(#g2)"/>
  <circle cx="50" cy="50" r="44" fill="url(#g1)" mask="url(#m1)"/>
  <circle cx="50" cy="50" r="46" fill="none" stroke="#ffd54f" stroke-width="0.8" opacity="0.7"/>
  <g fill="#388e3c" opacity="0.9" stroke="#ffd54f" stroke-width="0.3">
    <path d="M50,4 Q44,4 44,10 Q44,14 50,16 Q56,14 56,10 Q56,4 50,4 Z"/>
    <path d="M50,4 Q44,4 44,10 Q44,14 50,16 Q56,14 56,10 Q56,4 50,4 Z" transform="rotate(30 50 50)"/>
    <path d="M50,4 Q44,4 44,10 Q44,14 50,16 Q56,14 56,10 Q56,4 50,4 Z" transform="rotate(60 50 50)"/>
    <path d="M50,4 Q44,4 44,10 Q44,14 50,16 Q56,14 56,10 Q56,4 50,4 Z" transform="rotate(90 50 50)"/>
    <path d="M50,4 Q44,4 44,10 Q44,14 50,16 Q56,14 56,10 Q56,4 50,4 Z" transform="rotate(120 50 50)"/>
    <path d="M50,4 Q44,4 44,10 Q44,14 50,16 Q56,14 56,10 Q56,4 50,4 Z" transform="rotate(150 50 50)"/>
    <path d="M50,4 Q44,4 44,10 Q44,14 50,16 Q56,14 56,10 Q56,4 50,4 Z" transform="rotate(180 50 50)"/>
    <path d="M50,4 Q44,4 44,10 Q44,14 50,16 Q56,14 56,10 Q56,4 50,4 Z" transform="rotate(210 50 50)"/>
    <path d="M50,4 Q44,4 44,10 Q44,14 50,16 Q56,14 56,10 Q56,4 50,4 Z" transform="rotate(240 50 50)"/>
    <path d="M50,4 Q44,4 44,10 Q44,14 50,16 Q56,14 56,10 Q56,4 50,4 Z" transform="rotate(270 50 50)"/>
    <path d="M50,4 Q44,4 44,10 Q44,14 50,16 Q56,14 56,10 Q56,4 50,4 Z" transform="rotate(300 50 50)"/>
    <path d="M50,4 Q44,4 44,10 Q44,14 50,16 Q56,14 56,10 Q56,4 50,4 Z" transform="rotate(330 50 50)"/>
  </g>
  <g fill="#ffd54f" opacity="0.85">
    <circle cx="50" cy="3" r="1"/>
    <circle cx="85" cy="22" r="1"/>
    <circle cx="97" cy="50" r="1"/>
    <circle cx="85" cy="78" r="1"/>
    <circle cx="50" cy="97" r="1"/>
    <circle cx="15" cy="78" r="1"/>
    <circle cx="3" cy="50" r="1"/>
    <circle cx="15" cy="22" r="1"/>
  </g>
  <circle cx="50" cy="50" r="42" fill="none" stroke="#ffd54f" stroke-width="0.3" opacity="0.4"/>
</svg>
