<svg xmlns="http://www.w3.org/2000/svg" viewBox="0 0 100 100" width="100" height="100">
  <defs>
    <linearGradient id="g1" x1="0%" y1="0%" x2="100%" y2="100%">
      <stop offset="0%" stop-color="#1a1a4e"/>
      <stop offset="50%" stop-color="#3d2c8d"/>
      <stop offset="100%" stop-color="#0c0c2e"/>
    </linearGradient>
    <radialGradient id="g2" cx="50%" cy="50%">
      <stop offset="0%" stop-color="#9d8cd6" stop-opacity="0.5"/>
      <stop offset="100%" stop-color="#9d8cd6" stop-opacity="0"/>
    </radialGradient>
    <mask id="m1">
      <rect width="100" height="100" fill="white"/>
      <circle cx="50" cy="50" r="38" fill="black"/>
    </mask>
  </defs>
  <circle cx="50" cy="50" r="46" fill="url(#g2)"/>
  <circle cx="50" cy="50" r="44" fill="url(#g1)" mask="url(#m1)"/>
  <circle cx="50" cy="50" r="46" fill="none" stroke="#9d8cd6" stroke-width="0.8" opacity="0.6"/>
  <circle cx="50" cy="50" r="47.8" fill="none" stroke="#6b5bb3" stroke-width="0.4" opacity="0.4"/>
  <g fill="#ffffff">
    <circle cx="50" cy="5" r="1.2"/>
    <circle cx="68" cy="8" r="0.7"/>
    <circle cx="83" cy="20" r="1"/>
    <circle cx="93" cy="38" r="1.1"/>
    <circle cx="95" cy="58" r="0.8"/>
    <circle cx="87" cy="76" r="1"/>
    <circle cx="73" cy="89" r="1.1"/>
    <circle cx="55" cy="94" r="0.9"/>
    <circle cx="36" cy="92" r="1"/>
    <circle cx="20" cy="84" r="1"/>
    <circle cx="9" cy="68" r="0.9"/>
    <circle cx="5" cy="50" r="1.2"/>
    <circle cx="8" cy="32" r="0.8"/>
    <circle cx="17" cy="17" r="1"/>
    <circle cx="32" cy="8" r="0.9"/>
  </g>
  <g fill="#ffe66d" opacity="0.95">
    <path d="M50,2 L50.7,4.2 L52.9,4.9 L50.7,5.6 L50,7.8 L49.3,5.6 L47.1,4.9 L49.3,4.2 Z"/>
    <path d="M91,46 L91.6,47.6 L93.2,48.2 L91.6,48.8 L91,50.4 L90.4,48.8 L88.8,48.2 L90.4,47.6 Z"/>
    <path d="M9,30 L9.6,31.6 L11.2,32.2 L9.6,32.8 L9,34.4 L8.4,32.8 L6.8,32.2 L8.4,31.6 Z"/>
    <path d="M73,91 L73.6,92.6 L75.2,93.2 L73.6,93.8 L73,95.4 L72.4,93.8 L70.8,93.2 L72.4,92.6 Z"/>
  </g>
  <circle cx="50" cy="50" r="42" fill="none" stroke="#ffffff" stroke-width="0.3" opacity="0.25"/>
</svg>
