<svg xmlns="http://www.w3.org/2000/svg" viewBox="0 0 100 100" width="100" height="100">
  <defs>
    <linearGradient id="g1" x1="0%" y1="0%" x2="100%" y2="100%">
      <stop offset="0%" stop-color="#33691e"/>
      <stop offset="50%" stop-color="#689f38"/>
      <stop offset="100%" stop-color="#1b5e20"/>
    </linearGradient>
    <radialGradient id="g2" cx="50%" cy="50%">
      <stop offset="0%" stop-color="#dcedc8" stop-opacity="0.4"/>
      <stop offset="100%" stop-color="#dcedc8" stop-opacity="0"/>
    </radialGradient>
    <mask id="m1">
      <rect width="100" height="100" fill="white"/>
      <circle cx="50" cy="50" r="38" fill="black"/>
    </mask>
  </defs>
  <circle cx="50" cy="50" r="46" fill="url(#g2)"/>
  <circle cx="50" cy="50" r="44" fill="url(#g1)" mask="url(#m1)"/>
  <circle cx="50" cy="50" r="46" fill="none" stroke="#aed581" stroke-width="0.8" opacity="0.7"/>
  <g fill="#8bc34a" opacity="0.9">
    <ellipse cx="50" cy="6" rx="3" ry="1.5" transform="rotate(-30 50 6)"/>
    <ellipse cx="50" cy="6" rx="3" ry="1.5" transform="rotate(30 50 6)"/>
    <ellipse cx="85" cy="22" rx="3" ry="1.5" transform="rotate(60 85 22)"/>
    <ellipse cx="94" cy="50" rx="3" ry="1.5" transform="rotate(90 94 50)"/>
    <ellipse cx="85" cy="78" rx="3" ry="1.5" transform="rotate(120 85 78)"/>
    <ellipse cx="50" cy="94" rx="3" ry="1.5" transform="rotate(-30 50 94)"/>
    <ellipse cx="15" cy="78" rx="3" ry="1.5" transform="rotate(-60 15 78)"/>
    <ellipse cx="6" cy="50" rx="3" ry="1.5" transform="rotate(90 6 50)"/>
    <ellipse cx="15" cy="22" rx="3" ry="1.5" transform="rotate(-120 15 22)"/>
  </g>
  <g fill="#f48fb1" opacity="0.95">
    <circle cx="50" cy="4" r="1.8"/>
    <circle cx="85" cy="22" r="1.8"/>
    <circle cx="96" cy="50" r="1.8"/>
    <circle cx="85" cy="78" r="1.8"/>
    <circle cx="50" cy="96" r="1.8"/>
    <circle cx="15" cy="78" r="1.8"/>
    <circle cx="4" cy="50" r="1.8"/>
    <circle cx="15" cy="22" r="1.8"/>
  </g>
  <g fill="#fff59d" opacity="0.9">
    <circle cx="50" cy="4" r="0.7"/>
    <circle cx="85" cy="22" r="0.7"/>
    <circle cx="96" cy="50" r="0.7"/>
    <circle cx="85" cy="78" r="0.7"/>
    <circle cx="50" cy="96" r="0.7"/>
    <circle cx="15" cy="78" r="0.7"/>
    <circle cx="4" cy="50" r="0.7"/>
    <circle cx="15" cy="22" r="0.7"/>
  </g>
  <circle cx="50" cy="50" r="42" fill="none" stroke="#aed581" stroke-width="0.3" opacity="0.4"/>
</svg>
