<svg xmlns="http://www.w3.org/2000/svg" viewBox="0 0 100 100" width="100" height="100">
  <defs>
    <linearGradient id="g1" x1="0%" y1="0%" x2="100%" y2="100%">
      <stop offset="0%" stop-color="#000051"/>
      <stop offset="50%" stop-color="#1a0a47"/>
      <stop offset="100%" stop-color="#000000"/>
    </linearGradient>
    <radialGradient id="g2" cx="50%" cy="50%">
      <stop offset="0%" stop-color="#b388ff" stop-opacity="0.5"/>
      <stop offset="100%" stop-color="#b388ff" stop-opacity="0"/>
    </radialGradient>
    <radialGradient id="neb" cx="30%" cy="30%">
      <stop offset="0%" stop-color="#ff80ab" stop-opacity="0.6"/>
      <stop offset="100%" stop-color="#ff80ab" stop-opacity="0"/>
    </radialGradient>
    <mask id="m1">
      <rect width="100" height="100" fill="white"/>
      <circle cx="50" cy="50" r="38" fill="black"/>
    </mask>
  </defs>
  <circle cx="50" cy="50" r="46" fill="url(#g2)"/>
  <circle cx="50" cy="50" r="44" fill="url(#g1)" mask="url(#m1)"/>
  <circle cx="50" cy="50" r="44" fill="url(#neb)" mask="url(#m1)" opacity="0.5"/>
  <circle cx="50" cy="50" r="46" fill="none" stroke="#b388ff" stroke-width="0.8" opacity="0.7"/>
  <g fill="#ffffff">
    <circle cx="50" cy="3" r="1.3"/>
    <circle cx="68" cy="7" r="0.8"/>
    <circle cx="82" cy="18" r="1"/>
    <circle cx="92" cy="36" r="1.1"/>
    <circle cx="95" cy="56" r="0.8"/>
    <circle cx="88" cy="74" r="1"/>
    <circle cx="74" cy="88" r="1.1"/>
    <circle cx="56" cy="93" r="0.9"/>
    <circle cx="38" cy="91" r="1"/>
    <circle cx="22" cy="83" r="1"/>
    <circle cx="10" cy="66" r="0.9"/>
    <circle cx="5" cy="48" r="1.2"/>
    <circle cx="9" cy="30" r="0.8"/>
    <circle cx="18" cy="16" r="1"/>
    <circle cx="32" cy="7" r="0.9"/>
  </g>
  <g fill="#b388ff" opacity="0.95">
    <path d="M50,1 L50.6,3 L52.6,3.6 L50.6,4.2 L50,6.2 L49.4,4.2 L47.4,3.6 L49.4,3 Z"/>
    <path d="M50,1 L50.6,3 L52.6,3.6 L50.6,4.2 L50,6.2 L49.4,4.2 L47.4,3.6 L49.4,3 Z" transform="rotate(120 50 50)"/>
    <path d="M50,1 L50.6,3 L52.6,3.6 L50.6,4.2 L50,6.2 L49.4,4.2 L47.4,3.6 L49.4,3 Z" transform="rotate(240 50 50)"/>
  </g>
  <g fill="#ff80ab" opacity="0.8">
    <circle cx="72" cy="12" r="1"/>
    <circle cx="28" cy="88" r="1"/>
  </g>
  <circle cx="50" cy="50" r="42" fill="none" stroke="#b388ff" stroke-width="0.3" opacity="0.3"/>
</svg>
