<svg xmlns="http://www.w3.org/2000/svg" viewBox="0 0 100 100" width="100" height="100">
  <defs>
    <linearGradient id="g1" x1="0%" y1="0%" x2="100%" y2="100%">
      <stop offset="0%" stop-color="#8d6e63"/>
      <stop offset="50%" stop-color="#bcaaa4"/>
      <stop offset="100%" stop-color="#5d4037"/>
    </linearGradient>
    <linearGradient id="gold" x1="0%" y1="0%" x2="100%" y2="100%">
      <stop offset="0%" stop-color="#fff8e1"/>
      <stop offset="50%" stop-color="#ffd54f"/>
      <stop offset="100%" stop-color="#bf8f00"/>
    </linearGradient>
    <radialGradient id="g2" cx="50%" cy="50%">
      <stop offset="0%" stop-color="#ffe0b2" stop-opacity="0.4"/>
      <stop offset="100%" stop-color="#ffe0b2" stop-opacity="0"/>
    </radialGradient>
    <mask id="m1">
      <rect width="100" height="100" fill="white"/>
      <circle cx="50" cy="50" r="38" fill="black"/>
    </mask>
  </defs>
  <circle cx="50" cy="50" r="46" fill="url(#g2)"/>
  <circle cx="50" cy="50" r="44" fill="url(#g1)" mask="url(#m1)"/>
  <circle cx="50" cy="50" r="44" fill="none" stroke="url(#gold)" stroke-width="1.2" mask="url(#m1)"/>
  <circle cx="50" cy="50" r="46" fill="none" stroke="#ffd54f" stroke-width="0.6" opacity="0.8"/>
  <circle cx="50" cy="50" r="48" fill="none" stroke="#bf8f00" stroke-width="0.4" opacity="0.6"/>
  <g fill="url(#gold)" opacity="0.95">
    <path d="M50,2 C54,4 56,8 54,12 C52,10 50,6 48,8 C46,6 48,4 50,2 Z"/>
    <path d="M50,2 C54,4 56,8 54,12 C52,10 50,6 48,8 C46,6 48,4 50,2 Z" transform="rotate(45 50 50)"/>
    <path d="M50,2 C54,4 56,8 54,12 C52,10 50,6 48,8 C46,6 48,4 50,2 Z" transform="rotate(90 50 50)"/>
    <path d="M50,2 C54,4 56,8 54,12 C52,10 50,6 48,8 C46,6 48,4 50,2 Z" transform="rotate(135 50 50)"/>
    <path d="M50,2 C54,4 56,8 54,12 C52,10 50,6 48,8 C46,6 48,4 50,2 Z" transform="rotate(180 50 50)"/>
    <path d="M50,2 C54,4 56,8 54,12 C52,10 50,6 48,8 C46,6 48,4 50,2 Z" transform="rotate(225 50 50)"/>
    <path d="M50,2 C54,4 56,8 54,12 C52,10 50,6 48,8 C46,6 48,4 50,2 Z" transform="rotate(270 50 50)"/>
    <path d="M50,2 C54,4 56,8 54,12 C52,10 50,6 48,8 C46,6 48,4 50,2 Z" transform="rotate(315 50 50)"/>
  </g>
  <g fill="#ffd54f" opacity="0.9">
    <circle cx="50" cy="3" r="1.2"/>
    <circle cx="85" cy="22" r="1.2"/>
    <circle cx="97" cy="50" r="1.2"/>
    <circle cx="85" cy="78" r="1.2"/>
    <circle cx="50" cy="97" r="1.2"/>
    <circle cx="15" cy="78" r="1.2"/>
    <circle cx="3" cy="50" r="1.2"/>
    <circle cx="15" cy="22" r="1.2"/>
  </g>
  <circle cx="50" cy="50" r="42" fill="none" stroke="#ffd54f" stroke-width="0.3" opacity="0.5"/>
</svg>
