<svg xmlns="http://www.w3.org/2000/svg" viewBox="0 0 100 100" width="100" height="100">
  <defs>
    <linearGradient id="g1" x1="0%" y1="0%" x2="100%" y2="100%">
      <stop offset="0%" stop-color="#6d4c41"/>
      <stop offset="50%" stop-color="#8d6e63"/>
      <stop offset="100%" stop-color="#3e2723"/>
    </linearGradient>
    <radialGradient id="g2" cx="50%" cy="50%">
      <stop offset="0%" stop-color="#ffb74d" stop-opacity="0.3"/>
      <stop offset="100%" stop-color="#ffb74d" stop-opacity="0"/>
    </radialGradient>
    <mask id="m1">
      <rect width="100" height="100" fill="white"/>
      <circle cx="50" cy="50" r="38" fill="black"/>
    </mask>
  </defs>
  <circle cx="50" cy="50" r="46" fill="url(#g2)"/>
  <circle cx="50" cy="50" r="44" fill="url(#g1)" mask="url(#m1)"/>
  <circle cx="50" cy="50" r="46" fill="none" stroke="#ffb74d" stroke-width="0.8" opacity="0.7"/>
  <g fill="none" stroke="#a1887f" stroke-width="0.6" opacity="0.8">
    <circle cx="50" cy="8" r="4"/>
    <circle cx="80" cy="22" r="4"/>
    <circle cx="92" cy="50" r="4"/>
    <circle cx="80" cy="78" r="4"/>
    <circle cx="50" cy="92" r="4"/>
    <circle cx="20" cy="78" r="4"/>
    <circle cx="8" cy="50" r="4"/>
    <circle cx="20" cy="22" r="4"/>
  </g>
  <g fill="#ffb74d" opacity="0.9">
    <circle cx="50" cy="8" r="1.5"/>
    <circle cx="80" cy="22" r="1.5"/>
    <circle cx="92" cy="50" r="1.5"/>
    <circle cx="80" cy="78" r="1.5"/>
    <circle cx="50" cy="92" r="1.5"/>
    <circle cx="20" cy="78" r="1.5"/>
    <circle cx="8" cy="50" r="1.5"/>
    <circle cx="20" cy="22" r="1.5"/>
  </g>
  <g fill="#6d4c41" opacity="0.9" stroke="#ffb74d" stroke-width="0.3">
    <rect x="48" y="2" width="4" height="6" rx="0.5"/>
    <rect x="48" y="2" width="4" height="6" rx="0.5" transform="rotate(45 50 50)"/>
    <rect x="48" y="2" width="4" height="6" rx="0.5" transform="rotate(90 50 50)"/>
    <rect x="48" y="2" width="4" height="6" rx="0.5" transform="rotate(135 50 50)"/>
    <rect x="48" y="2" width="4" height="6" rx="0.5" transform="rotate(180 50 50)"/>
    <rect x="48" y="2" width="4" height="6" rx="0.5" transform="rotate(225 50 50)"/>
    <rect x="48" y="2" width="4" height="6" rx="0.5" transform="rotate(270 50 50)"/>
    <rect x="48" y="2" width="4" height="6" rx="0.5" transform="rotate(315 50 50)"/>
  </g>
  <g stroke="#ffd54f" stroke-width="0.4" opacity="0.6" fill="none">
    <circle cx="50" cy="50" r="48"/>
    <circle cx="50" cy="50" r="42"/>
  </g>
</svg>
