<svg xmlns="http://www.w3.org/2000/svg" viewBox="0 0 100 100" width="100" height="100">
  <defs>
    <linearGradient id="g1" x1="0%" y1="0%" x2="100%" y2="100%">
      <stop offset="0%" stop-color="#6a1b9a"/>
      <stop offset="50%" stop-color="#c2185b"/>
      <stop offset="100%" stop-color="#283593"/>
    </linearGradient>
    <radialGradient id="g2" cx="50%" cy="50%">
      <stop offset="0%" stop-color="#e040fb" stop-opacity="0.5"/>
      <stop offset="100%" stop-color="#e040fb" stop-opacity="0"/>
    </radialGradient>
    <mask id="m1">
      <rect width="100" height="100" fill="white"/>
      <circle cx="50" cy="50" r="38" fill="black"/>
    </mask>
  </defs>
  <circle cx="50" cy="50" r="46" fill="url(#g2)"/>
  <circle cx="50" cy="50" r="44" fill="url(#g1)" mask="url(#m1)"/>
  <circle cx="50" cy="50" r="46" fill="none" stroke="#e040fb" stroke-width="0.8" opacity="0.7"/>
  <g fill="#f8bbd0" opacity="0.95">
    <path d="M50,2 L46,8 L50,14 L54,8 Z"/>
    <path d="M50,2 L46,8 L50,14 L54,8 Z" transform="rotate(45 50 50)"/>
    <path d="M50,2 L46,8 L50,14 L54,8 Z" transform="rotate(90 50 50)"/>
    <path d="M50,2 L46,8 L50,14 L54,8 Z" transform="rotate(135 50 50)"/>
    <path d="M50,2 L46,8 L50,14 L54,8 Z" transform="rotate(180 50 50)"/>
    <path d="M50,2 L46,8 L50,14 L54,8 Z" transform="rotate(225 50 50)"/>
    <path d="M50,2 L46,8 L50,14 L54,8 Z" transform="rotate(270 50 50)"/>
    <path d="M50,2 L46,8 L50,14 L54,8 Z" transform="rotate(315 50 50)"/>
  </g>
  <g fill="none" stroke="#ce93d8" stroke-width="0.5" opacity="0.8">
    <path d="M50,0 L44,6 L50,12 L56,6 Z" transform="rotate(22.5 50 50)"/>
    <path d="M50,0 L44,6 L50,12 L56,6 Z" transform="rotate(67.5 50 50)"/>
    <path d="M50,0 L44,6 L50,12 L56,6 Z" transform="rotate(112.5 50 50)"/>
    <path d="M50,0 L44,6 L50,12 L56,6 Z" transform="rotate(157.5 50 50)"/>
    <path d="M50,0 L44,6 L50,12 L56,6 Z" transform="rotate(202.5 50 50)"/>
    <path d="M50,0 L44,6 L50,12 L56,6 Z" transform="rotate(247.5 50 50)"/>
    <path d="M50,0 L44,6 L50,12 L56,6 Z" transform="rotate(292.5 50 50)"/>
    <path d="M50,0 L44,6 L50,12 L56,6 Z" transform="rotate(337.5 50 50)"/>
  </g>
  <g fill="#ffffff" opacity="0.9">
    <circle cx="50" cy="50" r="1" transform="translate(0 -48)"/>
    <circle cx="50" cy="50" r="1" transform="translate(48 0)"/>
    <circle cx="50" cy="50" r="1" transform="translate(0 48)"/>
    <circle cx="50" cy="50" r="1" transform="translate(-48 0)"/>
  </g>
  <circle cx="50" cy="50" r="42" fill="none" stroke="#ffffff" stroke-width="0.3" opacity="0.4"/>
</svg>
