<svg xmlns="http://www.w3.org/2000/svg" viewBox="0 0 100 100" width="100" height="100">
  <defs>
    <linearGradient id="g1" x1="0%" y1="0%" x2="100%" y2="100%">
      <stop offset="0%" stop-color="#5e35b1"/>
      <stop offset="50%" stop-color="#7986cb"/>
      <stop offset="100%" stop-color="#283593"/>
    </linearGradient>
    <radialGradient id="g2" cx="50%" cy="50%">
      <stop offset="0%" stop-color="#c5cae9" stop-opacity="0.5"/>
      <stop offset="100%" stop-color="#c5cae9" stop-opacity="0"/>
    </radialGradient>
    <mask id="m1">
      <rect width="100" height="100" fill="white"/>
      <circle cx="50" cy="50" r="38" fill="black"/>
    </mask>
  </defs>
  <circle cx="50" cy="50" r="46" fill="url(#g2)"/>
  <circle cx="50" cy="50" r="44" fill="url(#g1)" mask="url(#m1)"/>
  <circle cx="50" cy="50" r="46" fill="none" stroke="#e8eaf6" stroke-width="0.8" opacity="0.7"/>
  <g fill="#9fa8da" opacity="0.95">
    <path d="M50,2 Q44,8 42,16 Q40,24 44,30 Q50,26 54,20 Q56,12 50,2 Z"/>
    <path d="M50,2 Q44,8 42,16 Q40,24 44,30 Q50,26 54,20 Q56,12 50,2 Z" transform="rotate(60 50 50)"/>
    <path d="M50,2 Q44,8 42,16 Q40,24 44,30 Q50,26 54,20 Q56,12 50,2 Z" transform="rotate(120 50 50)"/>
    <path d="M50,2 Q44,8 42,16 Q40,24 44,30 Q50,26 54,20 Q56,12 50,2 Z" transform="rotate(180 50 50)"/>
    <path d="M50,2 Q44,8 42,16 Q40,24 44,30 Q50,26 54,20 Q56,12 50,2 Z" transform="rotate(240 50 50)"/>
    <path d="M50,2 Q44,8 42,16 Q40,24 44,30 Q50,26 54,20 Q56,12 50,2 Z" transform="rotate(300 50 50)"/>
  </g>
  <g fill="#e8eaf6" opacity="0.8">
    <path d="M50,4 Q48,8 48,14 Q50,18 52,14 Q52,8 50,4 Z"/>
    <path d="M50,4 Q48,8 48,14 Q50,18 52,14 Q52,8 50,4 Z" transform="rotate(60 50 50)"/>
    <path d="M50,4 Q48,8 48,14 Q50,18 52,14 Q52,8 50,4 Z" transform="rotate(120 50 50)"/>
    <path d="M50,4 Q48,8 48,14 Q50,18 52,14 Q52,8 50,4 Z" transform="rotate(180 50 50)"/>
    <path d="M50,4 Q48,8 48,14 Q50,18 52,14 Q52,8 50,4 Z" transform="rotate(240 50 50)"/>
    <path d="M50,4 Q48,8 48,14 Q50,18 52,14 Q52,8 50,4 Z" transform="rotate(300 50 50)"/>
  </g>
  <g fill="#ffffff" opacity="0.85">
    <circle cx="50" cy="2" r="0.8"/>
    <circle cx="85" cy="22" r="0.8"/>
    <circle cx="98" cy="50" r="0.8"/>
    <circle cx="85" cy="78" r="0.8"/>
    <circle cx="50" cy="98" r="0.8"/>
    <circle cx="15" cy="78" r="0.8"/>
    <circle cx="2" cy="50" r="0.8"/>
    <circle cx="15" cy="22" r="0.8"/>
  </g>
  <circle cx="50" cy="50" r="42" fill="none" stroke="#ffffff" stroke-width="0.3" opacity="0.4"/>
</svg>
