<svg xmlns="http://www.w3.org/2000/svg" viewBox="0 0 100 100" width="100" height="100">
  <defs>
    <linearGradient id="g1" x1="0%" y1="0%" x2="100%" y2="100%">
      <stop offset="0%" stop-color="#004d40"/>
      <stop offset="50%" stop-color="#00897b"/>
      <stop offset="100%" stop-color="#001b1a"/>
    </linearGradient>
    <linearGradient id="em" x1="0%" y1="0%" x2="100%" y2="100%">
      <stop offset="0%" stop-color="#a7ffeb"/>
      <stop offset="50%" stop-color="#1de9b6"/>
      <stop offset="100%" stop-color="#00bfa5"/>
    </linearGradient>
    <radialGradient id="g2" cx="50%" cy="50%">
      <stop offset="0%" stop-color="#64ffda" stop-opacity="0.4"/>
      <stop offset="100%" stop-color="#64ffda" stop-opacity="0"/>
    </radialGradient>
    <mask id="m1">
      <rect width="100" height="100" fill="white"/>
      <circle cx="50" cy="50" r="38" fill="black"/>
    </mask>
  </defs>
  <circle cx="50" cy="50" r="46" fill="url(#g2)"/>
  <circle cx="50" cy="50" r="44" fill="url(#g1)" mask="url(#m1)"/>
  <circle cx="50" cy="50" r="46" fill="none" stroke="#1de9b6" stroke-width="0.8" opacity="0.7"/>
  <g fill="url(#em)" opacity="0.95" stroke="#a7ffeb" stroke-width="0.3">
    <polygon points="50,3 54,9 52,15 48,15 46,9"/>
    <polygon points="50,3 54,9 52,15 48,15 46,9" transform="rotate(60 50 50)"/>
    <polygon points="50,3 54,9 52,15 48,15 46,9" transform="rotate(120 50 50)"/>
    <polygon points="50,3 54,9 52,15 48,15 46,9" transform="rotate(180 50 50)"/>
    <polygon points="50,3 54,9 52,15 48,15 46,9" transform="rotate(240 50 50)"/>
    <polygon points="50,3 54,9 52,15 48,15 46,9" transform="rotate(300 50 50)"/>
  </g>
  <g fill="#64ffda" opacity="0.9">
    <circle cx="50" cy="3" r="1"/>
    <circle cx="85" cy="22" r="1"/>
    <circle cx="97" cy="50" r="1"/>
    <circle cx="85" cy="78" r="1"/>
    <circle cx="50" cy="97" r="1"/>
    <circle cx="15" cy="78" r="1"/>
    <circle cx="3" cy="50" r="1"/>
    <circle cx="15" cy="22" r="1"/>
  </g>
  <g fill="#a7ffeb" opacity="0.8">
    <path d="M50,0 L50.8,2.5 L53.3,3.3 L50.8,4.1 L50,6.6 L49.2,4.1 L46.7,3.3 L49.2,2.5 Z" transform="rotate(30 50 50)"/>
    <path d="M50,0 L50.8,2.5 L53.3,3.3 L50.8,4.1 L50,6.6 L49.2,4.1 L46.7,3.3 L49.2,2.5 Z" transform="rotate(150 50 50)"/>
    <path d="M50,0 L50.8,2.5 L53.3,3.3 L50.8,4.1 L50,6.6 L49.2,4.1 L46.7,3.3 L49.2,2.5 Z" transform="rotate(270 50 50)"/>
  </g>
  <circle cx="50" cy="50" r="42" fill="none" stroke="#1de9b6" stroke-width="0.3" opacity="0.4"/>
</svg>
