<svg xmlns="http://www.w3.org/2000/svg" viewBox="0 0 100 100" width="100" height="100">
  <defs>
    <linearGradient id="g1" x1="0%" y1="0%" x2="100%" y2="100%">
      <stop offset="0%" stop-color="#fff59d"/>
      <stop offset="50%" stop-color="#ffd54f"/>
      <stop offset="100%" stop-color="#ff8f00"/>
    </linearGradient>
    <radialGradient id="g2" cx="50%" cy="50%">
      <stop offset="0%" stop-color="#fffde7" stop-opacity="0.8"/>
      <stop offset="60%" stop-color="#fff176" stop-opacity="0.3"/>
      <stop offset="100%" stop-color="#fff176" stop-opacity="0"/>
    </radialGradient>
    <radialGradient id="g3" cx="50%" cy="50%">
      <stop offset="0%" stop-color="#ffffff" stop-opacity="0.9"/>
      <stop offset="100%" stop-color="#ffffff" stop-opacity="0"/>
    </radialGradient>
    <mask id="m1">
      <rect width="100" height="100" fill="white"/>
      <circle cx="50" cy="50" r="38" fill="black"/>
    </mask>
  </defs>
  <circle cx="50" cy="50" r="50" fill="url(#g2)"/>
  <circle cx="50" cy="50" r="44" fill="url(#g1)" mask="url(#m1)"/>
  <circle cx="50" cy="50" r="46" fill="none" stroke="#fff9c4" stroke-width="1" opacity="0.8"/>
  <circle cx="50" cy="50" r="48" fill="none" stroke="#ffd54f" stroke-width="0.5" opacity="0.6"/>
  <circle cx="50" cy="50" r="49.5" fill="none" stroke="#fff" stroke-width="0.3" opacity="0.5"/>
  <g fill="url(#g3)" opacity="0.9">
    <circle cx="50" cy="2" r="1.8"/>
    <circle cx="95" cy="50" r="1.8"/>
    <circle cx="50" cy="98" r="1.8"/>
    <circle cx="5" cy="50" r="1.8"/>
  </g>
  <g fill="#fffde7" opacity="0.85">
    <circle cx="85" cy="15" r="1.2"/>
    <circle cx="15" cy="85" r="1.2"/>
    <circle cx="85" cy="85" r="1.2"/>
    <circle cx="15" cy="15" r="1.2"/>
  </g>
  <g fill="none" stroke="#fff9c4" stroke-width="0.3" opacity="0.6">
    <circle cx="50" cy="50" r="47"/>
    <circle cx="50" cy="50" r="42"/>
  </g>
</svg>
