<svg xmlns="http://www.w3.org/2000/svg" viewBox="0 0 100 100" width="100" height="100">
  <defs>
    <linearGradient id="g1" x1="0%" y1="0%" x2="100%" y2="100%">
      <stop offset="0%" stop-color="#001219"/>
      <stop offset="50%" stop-color="#0a1f2e"/>
      <stop offset="100%" stop-color="#000000"/>
    </linearGradient>
    <linearGradient id="aurora" x1="0%" y1="0%" x2="100%" y2="100%">
      <stop offset="0%" stop-color="#00ff9f"/>
      <stop offset="50%" stop-color="#00d4ff"/>
      <stop offset="100%" stop-color="#b388ff"/>
    </linearGradient>
    <radialGradient id="g2" cx="50%" cy="50%">
      <stop offset="0%" stop-color="#00ff9f" stop-opacity="0.35"/>
      <stop offset="100%" stop-color="#00ff9f" stop-opacity="0"/>
    </radialGradient>
    <mask id="m1">
      <rect width="100" height="100" fill="white"/>
      <circle cx="50" cy="50" r="38" fill="black"/>
    </mask>
  </defs>
  <circle cx="50" cy="50" r="46" fill="url(#g2)"/>
  <circle cx="50" cy="50" r="44" fill="url(#g1)" mask="url(#m1)"/>
  <circle cx="50" cy="50" r="46" fill="none" stroke="url(#aurora)" stroke-width="0.8" opacity="0.8"/>
  <g fill="none" stroke="url(#aurora)" stroke-width="1" opacity="0.7">
    <path d="M10,30 Q30,20 50,25 T90,30" opacity="0.8"/>
    <path d="M10,40 Q30,30 50,35 T90,40" opacity="0.6"/>
    <path d="M10,60 Q30,70 50,65 T90,60" opacity="0.8"/>
    <path d="M10,70 Q30,80 50,75 T90,70" opacity="0.6"/>
  </g>
  <g fill="none" stroke="url(#aurora)" stroke-width="0.6" opacity="0.85">
    <path d="M50,4 Q56,8 50,14 Q44,8 50,4 Z"/>
    <path d="M50,4 Q56,8 50,14 Q44,8 50,4 Z" transform="rotate(90 50 50)"/>
    <path d="M50,4 Q56,8 50,14 Q44,8 50,4 Z" transform="rotate(180 50 50)"/>
    <path d="M50,4 Q56,8 50,14 Q44,8 50,4 Z" transform="rotate(270 50 50)"/>
  </g>
  <g fill="#00ff9f" opacity="0.9">
    <circle cx="50" cy="3" r="1.2"/>
    <circle cx="85" cy="22" r="1"/>
    <circle cx="97" cy="50" r="1.2"/>
    <circle cx="85" cy="78" r="1"/>
    <circle cx="50" cy="97" r="1.2"/>
    <circle cx="15" cy="78" r="1"/>
    <circle cx="3" cy="50" r="1.2"/>
    <circle cx="15" cy="22" r="1"/>
  </g>
  <g fill="#b388ff" opacity="0.8">
    <circle cx="72" cy="12" r="0.8"/>
    <circle cx="28" cy="12" r="0.8"/>
    <circle cx="88" cy="38" r="0.8"/>
    <circle cx="88" cy="62" r="0.8"/>
    <circle cx="72" cy="88" r="0.8"/>
    <circle cx="28" cy="88" r="0.8"/>
    <circle cx="12" cy="62" r="0.8"/>
    <circle cx="12" cy="38" r="0.8"/>
  </g>
  <circle cx="50" cy="50" r="42" fill="none" stroke="#00ff9f" stroke-width="0.3" opacity="0.4"/>
</svg>
