<svg xmlns="http://www.w3.org/2000/svg" viewBox="0 0 100 100" width="100" height="100">
  <defs>
    <linearGradient id="g1" x1="0%" y1="0%" x2="100%" y2="100%">
      <stop offset="0%" stop-color="#1a1a2e"/>
      <stop offset="50%" stop-color="#16213e"/>
      <stop offset="100%" stop-color="#0f0f1e"/>
    </linearGradient>
    <radialGradient id="g2" cx="50%" cy="50%">
      <stop offset="0%" stop-color="#7c4dff" stop-opacity="0.3"/>
      <stop offset="100%" stop-color="#7c4dff" stop-opacity="0"/>
    </radialGradient>
    <mask id="m1">
      <rect width="100" height="100" fill="white"/>
      <circle cx="50" cy="50" r="38" fill="black"/>
    </mask>
  </defs>
  <circle cx="50" cy="50" r="46" fill="url(#g2)"/>
  <circle cx="50" cy="50" r="44" fill="url(#g1)" mask="url(#m1)"/>
  <circle cx="50" cy="50" r="46" fill="none" stroke="#7c4dff" stroke-width="0.8" opacity="0.7"/>
  <g fill="#b39ddb" opacity="0.95">
    <path d="M50,2 L50.7,4 L52.7,4.7 L50.7,5.4 L50,7.4 L49.3,5.4 L47.3,4.7 L49.3,4 Z"/>
    <path d="M50,2 L50.7,4 L52.7,4.7 L50.7,5.4 L50,7.4 L49.3,5.4 L47.3,4.7 L49.3,4 Z" transform="rotate(60 50 50)"/>
    <path d="M50,2 L50.7,4 L52.7,4.7 L50.7,5.4 L50,7.4 L49.3,5.4 L47.3,4.7 L49.3,4 Z" transform="rotate(120 50 50)"/>
    <path d="M50,2 L50.7,4 L52.7,4.7 L50.7,5.4 L50,7.4 L49.3,5.4 L47.3,4.7 L49.3,4 Z" transform="rotate(180 50 50)"/>
    <path d="M50,2 L50.7,4 L52.7,4.7 L50.7,5.4 L50,7.4 L49.3,5.4 L47.3,4.7 L49.3,4 Z" transform="rotate(240 50 50)"/>
    <path d="M50,2 L50.7,4 L52.7,4.7 L50.7,5.4 L50,7.4 L49.3,5.4 L47.3,4.7 L49.3,4 Z" transform="rotate(300 50 50)"/>
  </g>
  <g fill="#ffffff" opacity="0.8">
    <circle cx="22" cy="14" r="0.7"/>
    <circle cx="78" cy="14" r="0.8"/>
    <circle cx="88" cy="35" r="0.7"/>
    <circle cx="88" cy="65" r="0.8"/>
    <circle cx="78" cy="86" r="0.7"/>
    <circle cx="22" cy="86" r="0.8"/>
    <circle cx="12" cy="65" r="0.7"/>
    <circle cx="12" cy="35" r="0.8"/>
  </g>
  <g fill="#7c4dff" opacity="0.9">
    <circle cx="50" cy="3" r="1.3"/>
    <circle cx="97" cy="50" r="1.3"/>
    <circle cx="50" cy="97" r="1.3"/>
    <circle cx="3" cy="50" r="1.3"/>
  </g>
  <circle cx="50" cy="50" r="42" fill="none" stroke="#7c4dff" stroke-width="0.3" opacity="0.3"/>
</svg>
