<svg xmlns="http://www.w3.org/2000/svg" viewBox="0 0 100 100" width="100" height="100">
  <defs>
    <linearGradient id="g1" x1="0%" y1="0%" x2="100%" y2="100%">
      <stop offset="0%" stop-color="#4fc3f7"/>
      <stop offset="50%" stop-color="#81d4fa"/>
      <stop offset="100%" stop-color="#0277bd"/>
    </linearGradient>
    <radialGradient id="g2" cx="50%" cy="50%">
      <stop offset="0%" stop-color="#ffffff" stop-opacity="0.6"/>
      <stop offset="100%" stop-color="#ffffff" stop-opacity="0"/>
    </radialGradient>
    <mask id="m1">
      <rect width="100" height="100" fill="white"/>
      <circle cx="50" cy="50" r="38" fill="black"/>
    </mask>
  </defs>
  <circle cx="50" cy="50" r="46" fill="url(#g2)"/>
  <circle cx="50" cy="50" r="44" fill="url(#g1)" mask="url(#m1)"/>
  <circle cx="50" cy="50" r="46" fill="none" stroke="#ffffff" stroke-width="0.8" opacity="0.8"/>
  <g fill="none" stroke="#ffffff" stroke-width="0.9" opacity="0.95">
    <g transform="translate(50 50)">
      <line x1="0" y1="-48" x2="0" y2="-40"/>
      <line x1="0" y1="48" x2="0" y2="40"/>
      <line x1="-48" y1="0" x2="-40" y2="0"/>
      <line x1="48" y1="0" x2="40" y2="0"/>
      <line x1="-34" y1="-34" x2="-28" y2="-28"/>
      <line x1="34" y1="-34" x2="28" y2="-28"/>
      <line x1="-34" y1="34" x2="-28" y2="28"/>
      <line x1="34" y1="34" x2="28" y2="28"/>
      <g>
        <line x1="0" y1="-48" x2="-2" y2="-44"/>
        <line x1="0" y1="-48" x2="2" y2="-44"/>
        <line x1="0" y1="-48" x2="-4" y2="-45"/>
        <line x1="0" y1="-48" x2="4" y2="-45"/>
      </g>
      <g transform="rotate(90)">
        <line x1="0" y1="-48" x2="-2" y2="-44"/>
        <line x1="0" y1="-48" x2="2" y2="-44"/>
        <line x1="0" y1="-48" x2="-4" y2="-45"/>
        <line x1="0" y1="-48" x2="4" y2="-45"/>
      </g>
      <g transform="rotate(180)">
        <line x1="0" y1="-48" x2="-2" y2="-44"/>
        <line x1="0" y1="-48" x2="2" y2="-44"/>
        <line x1="0" y1="-48" x2="-4" y2="-45"/>
        <line x1="0" y1="-48" x2="4" y2="-45"/>
      </g>
      <g transform="rotate(270)">
        <line x1="0" y1="-48" x2="-2" y2="-44"/>
        <line x1="0" y1="-48" x2="2" y2="-44"/>
        <line x1="0" y1="-48" x2="-4" y2="-45"/>
        <line x1="0" y1="-48" x2="4" y2="-45"/>
      </g>
    </g>
  </g>
  <g fill="#e1f5fe" opacity="0.9">
    <circle cx="20" cy="15" r="0.8"/>
    <circle cx="80" cy="15" r="0.7"/>
    <circle cx="15" cy="80" r="0.8"/>
    <circle cx="85" cy="80" r="0.7"/>
  </g>
  <circle cx="50" cy="50" r="42" fill="none" stroke="#ffffff" stroke-width="0.3" opacity="0.4"/>
</svg>
