<svg xmlns="http://www.w3.org/2000/svg" viewBox="0 0 100 100" width="100" height="100">
  <defs>
    <linearGradient id="g1" x1="0%" y1="0%" x2="100%" y2="100%">
      <stop offset="0%" stop-color="#2d5016"/>
      <stop offset="50%" stop-color="#4a7c2e"/>
      <stop offset="100%" stop-color="#1a3409"/>
    </linearGradient>
    <radialGradient id="g2" cx="50%" cy="50%">
      <stop offset="0%" stop-color="#a8d08d" stop-opacity="0.4"/>
      <stop offset="100%" stop-color="#a8d08d" stop-opacity="0"/>
    </radialGradient>
    <mask id="m1">
      <rect width="100" height="100" fill="white"/>
      <circle cx="50" cy="50" r="38" fill="black"/>
    </mask>
  </defs>
  <circle cx="50" cy="50" r="46" fill="url(#g2)"/>
  <circle cx="50" cy="50" r="44" fill="url(#g1)" mask="url(#m1)"/>
  <circle cx="50" cy="50" r="46" fill="none" stroke="#7cb342" stroke-width="0.8" opacity="0.7"/>
  <g fill="none" stroke="#558b2f" stroke-width="1" opacity="0.9">
    <path d="M50,2 Q52,10 50,18 Q48,26 50,34"/>
    <path d="M50,2 Q52,10 50,18 Q48,26 50,34" transform="rotate(60 50 50)"/>
    <path d="M50,2 Q52,10 50,18 Q48,26 50,34" transform="rotate(120 50 50)"/>
    <path d="M50,2 Q52,10 50,18 Q48,26 50,34" transform="rotate(180 50 50)"/>
    <path d="M50,2 Q52,10 50,18 Q48,26 50,34" transform="rotate(240 50 50)"/>
    <path d="M50,2 Q52,10 50,18 Q48,26 50,34" transform="rotate(300 50 50)"/>
  </g>
  <g fill="#8bc34a" opacity="0.95">
    <path d="M50,0 C53,2 53,5 50,7 C47,5 47,2 50,0 Z" transform="rotate(30 50 50)"/>
    <path d="M50,0 C53,2 53,5 50,7 C47,5 47,2 50,0 Z" transform="rotate(90 50 50)"/>
    <path d="M50,0 C53,2 53,5 50,7 C47,5 47,2 50,0 Z" transform="rotate(150 50 50)"/>
    <path d="M50,0 C53,2 53,5 50,7 C47,5 47,2 50,0 Z" transform="rotate(210 50 50)"/>
    <path d="M50,0 C53,2 53,5 50,7 C47,5 47,2 50,0 Z" transform="rotate(270 50 50)"/>
    <path d="M50,0 C53,2 53,5 50,7 C47,5 47,2 50,0 Z" transform="rotate(330 50 50)"/>
  </g>
  <g fill="#dcedc8" opacity="0.8">
    <circle cx="50" cy="50" r="0.8" transform="translate(0 -46)"/>
    <circle cx="50" cy="50" r="0.8" transform="translate(40 -23)"/>
    <circle cx="50" cy="50" r="0.8" transform="translate(40 23)"/>
    <circle cx="50" cy="50" r="0.8" transform="translate(0 46)"/>
    <circle cx="50" cy="50" r="0.8" transform="translate(-40 23)"/>
    <circle cx="50" cy="50" r="0.8" transform="translate(-40 -23)"/>
  </g>
  <circle cx="50" cy="50" r="42" fill="none" stroke="#a8d08d" stroke-width="0.3" opacity="0.4"/>
</svg>
