<svg xmlns="http://www.w3.org/2000/svg" viewBox="0 0 100 100" width="100" height="100">
  <defs>
    <linearGradient id="g1" x1="0%" y1="0%" x2="100%" y2="100%">
      <stop offset="0%" stop-color="#001021"/>
      <stop offset="50%" stop-color="#013e5e"/>
      <stop offset="100%" stop-color="#000814"/>
    </linearGradient>
    <linearGradient id="tech" x1="0%" y1="0%" x2="100%" y2="100%">
      <stop offset="0%" stop-color="#00e5ff"/>
      <stop offset="100%" stop-color="#00b8d4"/>
    </linearGradient>
    <radialGradient id="g2" cx="50%" cy="50%">
      <stop offset="0%" stop-color="#00e5ff" stop-opacity="0.4"/>
      <stop offset="100%" stop-color="#00e5ff" stop-opacity="0"/>
    </radialGradient>
    <mask id="m1">
      <rect width="100" height="100" fill="white"/>
      <circle cx="50" cy="50" r="38" fill="black"/>
    </mask>
  </defs>
  <circle cx="50" cy="50" r="46" fill="url(#g2)"/>
  <circle cx="50" cy="50" r="44" fill="url(#g1)" mask="url(#m1)"/>
  <circle cx="50" cy="50" r="46" fill="none" stroke="#00e5ff" stroke-width="0.8" opacity="0.8"/>
  <g fill="none" stroke="url(#tech)" stroke-width="0.7" opacity="0.9">
    <path d="M50,3 L50,8 M46,5.5 L54,5.5"/>
    <path d="M50,3 L50,8 M46,5.5 L54,5.5" transform="rotate(45 50 50)"/>
    <path d="M50,3 L50,8 M46,5.5 L54,5.5" transform="rotate(90 50 50)"/>
    <path d="M50,3 L50,8 M46,5.5 L54,5.5" transform="rotate(135 50 50)"/>
    <path d="M50,3 L50,8 M46,5.5 L54,5.5" transform="rotate(180 50 50)"/>
    <path d="M50,3 L50,8 M46,5.5 L54,5.5" transform="rotate(225 50 50)"/>
    <path d="M50,3 L50,8 M46,5.5 L54,5.5" transform="rotate(270 50 50)"/>
    <path d="M50,3 L50,8 M46,5.5 L54,5.5" transform="rotate(315 50 50)"/>
  </g>
  <g fill="none" stroke="#00e5ff" stroke-width="0.5" opacity="0.7">
    <polygon points="50,6 78,22 78,78 50,94 22,78 22,22"/>
    <polygon points="50,6 78,22 78,78 50,94 22,78 22,22" transform="rotate(30 50 50)"/>
  </g>
  <g fill="#00e5ff" opacity="0.95">
    <rect x="49" y="1" width="2" height="3"/>
    <rect x="49" y="1" width="2" height="3" transform="rotate(90 50 50)"/>
    <rect x="49" y="1" width="2" height="3" transform="rotate(180 50 50)"/>
    <rect x="49" y="1" width="2" height="3" transform="rotate(270 50 50)"/>
  </g>
  <g fill="#18ffff" opacity="0.8">
    <circle cx="22" cy="22" r="0.9"/>
    <circle cx="78" cy="22" r="0.9"/>
    <circle cx="78" cy="78" r="0.9"/>
    <circle cx="22" cy="78" r="0.9"/>
  </g>
  <circle cx="50" cy="50" r="42" fill="none" stroke="#00e5ff" stroke-width="0.3" opacity="0.4"/>
</svg>
