<svg xmlns="http://www.w3.org/2000/svg" viewBox="0 0 100 100" width="100" height="100">
  <defs>
    <linearGradient id="g1" x1="0%" y1="0%" x2="100%" y2="100%">
      <stop offset="0%" stop-color="#cfd8dc"/>
      <stop offset="50%" stop-color="#90a4ae"/>
      <stop offset="100%" stop-color="#37474f"/>
    </linearGradient>
    <radialGradient id="g2" cx="50%" cy="50%">
      <stop offset="0%" stop-color="#e1f5fe" stop-opacity="0.6"/>
      <stop offset="100%" stop-color="#e1f5fe" stop-opacity="0"/>
    </radialGradient>
    <mask id="m1">
      <rect width="100" height="100" fill="white"/>
      <circle cx="50" cy="50" r="38" fill="black"/>
    </mask>
  </defs>
  <circle cx="50" cy="50" r="46" fill="url(#g2)"/>
  <circle cx="50" cy="50" r="44" fill="url(#g1)" mask="url(#m1)"/>
  <circle cx="50" cy="50" r="46" fill="none" stroke="#eceff1" stroke-width="0.8" opacity="0.8"/>
  <g fill="#e1f5fe" opacity="0.95">
    <path d="M54,2 A8,8 0 1 0 54,12 A6,6 0 1 1 54,2 Z" transform="rotate(0 50 50)"/>
    <path d="M54,2 A8,8 0 1 0 54,12 A6,6 0 1 1 54,2 Z" transform="rotate(90 50 50)"/>
    <path d="M54,2 A8,8 0 1 0 54,12 A6,6 0 1 1 54,2 Z" transform="rotate(180 50 50)"/>
    <path d="M54,2 A8,8 0 1 0 54,12 A6,6 0 1 1 54,2 Z" transform="rotate(270 50 50)"/>
  </g>
  <g fill="#ffffff" opacity="0.9">
    <circle cx="22" cy="12" r="0.8"/>
    <circle cx="78" cy="12" r="0.9"/>
    <circle cx="88" cy="50" r="0.8"/>
    <circle cx="78" cy="88" r="0.9"/>
    <circle cx="22" cy="88" r="0.8"/>
    <circle cx="12" cy="50" r="0.9"/>
  </g>
  <circle cx="50" cy="50" r="42" fill="none" stroke="#ffffff" stroke-width="0.3" opacity="0.4"/>
  <circle cx="50" cy="50" r="47.8" fill="none" stroke="#cfd8dc" stroke-width="0.4" opacity="0.5"/>
</svg>
