<svg xmlns="http://www.w3.org/2000/svg" viewBox="0 0 100 100" width="100" height="100">
  <defs>
    <linearGradient id="g1" x1="0%" y1="0%" x2="100%" y2="100%">
      <stop offset="0%" stop-color="#f8bbd0"/>
      <stop offset="50%" stop-color="#ce93d8"/>
      <stop offset="100%" stop-color="#b39ddb"/>
    </linearGradient>
    <radialGradient id="g2" cx="50%" cy="50%">
      <stop offset="0%" stop-color="#ffffff" stop-opacity="0.6"/>
      <stop offset="100%" stop-color="#ffffff" stop-opacity="0"/>
    </radialGradient>
    <mask id="m1">
      <rect width="100" height="100" fill="white"/>
      <circle cx="50" cy="50" r="38" fill="black"/>
    </mask>
  </defs>
  <circle cx="50" cy="50" r="46" fill="url(#g2)"/>
  <circle cx="50" cy="50" r="44" fill="url(#g1)" mask="url(#m1)"/>
  <circle cx="50" cy="50" r="46" fill="none" stroke="#ffffff" stroke-width="0.8" opacity="0.8"/>
  <g fill="#ffffff" opacity="0.95">
    <path d="M50,2 L52,6 L56,7 L53,10 L54,14 L50,12 L46,14 L47,10 L44,7 L48,6 Z"/>
    <path d="M50,2 L52,6 L56,7 L53,10 L54,14 L50,12 L46,14 L47,10 L44,7 L48,6 Z" transform="rotate(90 50 50)"/>
    <path d="M50,2 L52,6 L56,7 L53,10 L54,14 L50,12 L46,14 L47,10 L44,7 L48,6 Z" transform="rotate(180 50 50)"/>
    <path d="M50,2 L52,6 L56,7 L53,10 L54,14 L50,12 L46,14 L47,10 L44,7 L48,6 Z" transform="rotate(270 50 50)"/>
  </g>
  <g fill="#f48fb1" opacity="0.9">
    <circle cx="50" cy="4" r="1.5"/>
    <circle cx="85" cy="22" r="1.5"/>
    <circle cx="96" cy="50" r="1.5"/>
    <circle cx="85" cy="78" r="1.5"/>
    <circle cx="50" cy="96" r="1.5"/>
    <circle cx="15" cy="78" r="1.5"/>
    <circle cx="4" cy="50" r="1.5"/>
    <circle cx="15" cy="22" r="1.5"/>
  </g>
  <g fill="#fff59d" opacity="0.85">
    <circle cx="72" cy="12" r="0.9"/>
    <circle cx="28" cy="12" r="0.9"/>
    <circle cx="88" cy="38" r="0.9"/>
    <circle cx="88" cy="62" r="0.9"/>
    <circle cx="72" cy="88" r="0.9"/>
    <circle cx="28" cy="88" r="0.9"/>
    <circle cx="12" cy="62" r="0.9"/>
    <circle cx="12" cy="38" r="0.9"/>
  </g>
  <circle cx="50" cy="50" r="42" fill="none" stroke="#ffffff" stroke-width="0.3" opacity="0.5"/>
</svg>
