<svg xmlns="http://www.w3.org/2000/svg" viewBox="0 0 100 100" width="100" height="100">
  <defs>
    <linearGradient id="g1" x1="0%" y1="0%" x2="100%" y2="100%">
      <stop offset="0%" stop-color="#f5f7fa"/>
      <stop offset="50%" stop-color="#b8c6db"/>
      <stop offset="100%" stop-color="#78909c"/>
    </linearGradient>
    <linearGradient id="g2" x1="0%" y1="0%" x2="0%" y2="100%">
      <stop offset="0%" stop-color="#ffffff" stop-opacity="0.8"/>
      <stop offset="100%" stop-color="#ffffff" stop-opacity="0"/>
    </linearGradient>
    <mask id="m1">
      <rect width="100" height="100" fill="white"/>
      <circle cx="50" cy="50" r="38" fill="black"/>
    </mask>
  </defs>
  <circle cx="50" cy="50" r="44" fill="url(#g1)" mask="url(#m1)"/>
  <circle cx="50" cy="50" r="44" fill="url(#g2)" mask="url(#m1)" opacity="0.5"/>
  <circle cx="50" cy="50" r="46" fill="none" stroke="#eceff1" stroke-width="0.8" opacity="0.8"/>
  <circle cx="50" cy="50" r="47.5" fill="none" stroke="#90a4ae" stroke-width="0.5" opacity="0.6"/>
  <g fill="none" stroke="#cfd8dc" stroke-width="0.6" opacity="0.7">
    <circle cx="50" cy="50" r="48.5"/>
    <circle cx="50" cy="50" r="49.5" opacity="0.5"/>
  </g>
  <g fill="#b0bec5" opacity="0.9">
    <circle cx="50" cy="3" r="1.3"/>
    <circle cx="85" cy="22" r="1.3"/>
    <circle cx="97" cy="50" r="1.3"/>
    <circle cx="85" cy="78" r="1.3"/>
    <circle cx="50" cy="97" r="1.3"/>
    <circle cx="15" cy="78" r="1.3"/>
    <circle cx="3" cy="50" r="1.3"/>
    <circle cx="15" cy="22" r="1.3"/>
  </g>
  <g fill="#ffffff" opacity="0.7">
    <circle cx="50" cy="2" r="0.5"/>
    <circle cx="84" cy="21" r="0.5"/>
    <circle cx="98" cy="50" r="0.5"/>
    <circle cx="84" cy="79" r="0.5"/>
    <circle cx="50" cy="98" r="0.5"/>
    <circle cx="16" cy="79" r="0.5"/>
    <circle cx="2" cy="50" r="0.5"/>
    <circle cx="16" cy="21" r="0.5"/>
  </g>
  <circle cx="50" cy="50" r="42" fill="none" stroke="#ffffff" stroke-width="0.4" opacity="0.5"/>
</svg>
