<svg xmlns="http://www.w3.org/2000/svg" viewBox="0 0 100 100" width="100" height="100">
  <defs>
    <linearGradient id="g1" x1="0%" y1="0%" x2="100%" y2="100%">
      <stop offset="0%" stop-color="#ffd6a5"/>
      <stop offset="50%" stop-color="#ffadad"/>
      <stop offset="100%" stop-color="#bdb2ff"/>
    </linearGradient>
    <radialGradient id="g2" cx="50%" cy="50%">
      <stop offset="0%" stop-color="#fff5e6" stop-opacity="0.6"/>
      <stop offset="100%" stop-color="#fff5e6" stop-opacity="0"/>
    </radialGradient>
    <mask id="m1">
      <rect width="100" height="100" fill="white"/>
      <circle cx="50" cy="50" r="38" fill="black"/>
    </mask>
  </defs>
  <circle cx="50" cy="50" r="46" fill="url(#g2)"/>
  <circle cx="50" cy="50" r="44" fill="url(#g1)" mask="url(#m1)"/>
  <circle cx="50" cy="50" r="46" fill="none" stroke="#ffe8d6" stroke-width="0.8" opacity="0.8"/>
  <g fill="#ffffff" opacity="0.9">
    <circle cx="50" cy="4" r="1.4"/>
    <circle cx="85" cy="22" r="1.2"/>
    <circle cx="96" cy="50" r="1.4"/>
    <circle cx="85" cy="78" r="1.2"/>
    <circle cx="50" cy="96" r="1.4"/>
    <circle cx="15" cy="78" r="1.2"/>
    <circle cx="4" cy="50" r="1.4"/>
    <circle cx="15" cy="22" r="1.2"/>
  </g>
  <g fill="#ffd6a5" opacity="0.85">
    <path d="M50,8 C53,11 52,15 50,17 C48,15 47,11 50,8 Z" transform="rotate(30 50 50)"/>
    <path d="M50,8 C53,11 52,15 50,17 C48,15 47,11 50,8 Z" transform="rotate(90 50 50)"/>
    <path d="M50,8 C53,11 52,15 50,17 C48,15 47,11 50,8 Z" transform="rotate(150 50 50)"/>
    <path d="M50,8 C53,11 52,15 50,17 C48,15 47,11 50,8 Z" transform="rotate(210 50 50)"/>
    <path d="M50,8 C53,11 52,15 50,17 C48,15 47,11 50,8 Z" transform="rotate(270 50 50)"/>
    <path d="M50,8 C53,11 52,15 50,17 C48,15 47,11 50,8 Z" transform="rotate(330 50 50)"/>
  </g>
  <g fill="#fff5e6" opacity="0.8">
    <path d="M50,1 L50.8,3 L52.8,3.6 L50.8,4.2 L50,6 L49.2,4.2 L47.2,3.6 L49.2,3 Z" transform="rotate(45 50 50)"/>
    <path d="M50,1 L50.8,3 L52.8,3.6 L50.8,4.2 L50,6 L49.2,4.2 L47.2,3.6 L49.2,3 Z" transform="rotate(135 50 50)"/>
    <path d="M50,1 L50.8,3 L52.8,3.6 L50.8,4.2 L50,6 L49.2,4.2 L47.2,3.6 L49.2,3 Z" transform="rotate(225 50 50)"/>
    <path d="M50,1 L50.8,3 L52.8,3.6 L50.8,4.2 L50,6 L49.2,4.2 L47.2,3.6 L49.2,3 Z" transform="rotate(315 50 50)"/>
  </g>
  <circle cx="50" cy="50" r="42" fill="none" stroke="#ffffff" stroke-width="0.3" opacity="0.5"/>
</svg>
