<svg xmlns="http://www.w3.org/2000/svg" viewBox="0 0 100 100" width="100" height="100">
  <defs>
    <linearGradient id="g1" x1="0%" y1="0%" x2="100%" y2="100%">
      <stop offset="0%" stop-color="#ffd1dc"/>
      <stop offset="50%" stop-color="#ff9ebb"/>
      <stop offset="100%" stop-color="#f06292"/>
    </linearGradient>
    <radialGradient id="g2" cx="50%" cy="50%">
      <stop offset="0%" stop-color="#fff0f5" stop-opacity="0.6"/>
      <stop offset="100%" stop-color="#fff0f5" stop-opacity="0"/>
    </radialGradient>
    <mask id="m1">
      <rect width="100" height="100" fill="white"/>
      <circle cx="50" cy="50" r="38" fill="black"/>
    </mask>
  </defs>
  <circle cx="50" cy="50" r="46" fill="url(#g2)"/>
  <circle cx="50" cy="50" r="44" fill="url(#g1)" mask="url(#m1)"/>
  <circle cx="50" cy="50" r="46" fill="none" stroke="#ffffff" stroke-width="0.8" opacity="0.7"/>
  <g fill="#ffffff" opacity="0.85">
    <path d="M50,2 C52,5 52,8 50,10 C48,8 48,5 50,2 Z" transform="rotate(0 50 50)"/>
    <path d="M50,2 C52,5 52,8 50,10 C48,8 48,5 50,2 Z" transform="rotate(45 50 50)"/>
    <path d="M50,2 C52,5 52,8 50,10 C48,8 48,5 50,2 Z" transform="rotate(90 50 50)"/>
    <path d="M50,2 C52,5 52,8 50,10 C48,8 48,5 50,2 Z" transform="rotate(135 50 50)"/>
    <path d="M50,2 C52,5 52,8 50,10 C48,8 48,5 50,2 Z" transform="rotate(180 50 50)"/>
    <path d="M50,2 C52,5 52,8 50,10 C48,8 48,5 50,2 Z" transform="rotate(225 50 50)"/>
    <path d="M50,2 C52,5 52,8 50,10 C48,8 48,5 50,2 Z" transform="rotate(270 50 50)"/>
    <path d="M50,2 C52,5 52,8 50,10 C48,8 48,5 50,2 Z" transform="rotate(315 50 50)"/>
  </g>
  <g fill="#ff6b9d" opacity="0.9">
    <circle cx="50" cy="4" r="1.5"/>
    <circle cx="85" cy="50" r="1.5"/>
    <circle cx="50" cy="96" r="1.5"/>
    <circle cx="15" cy="50" r="1.5"/>
  </g>
  <g fill="#ffe0ec" opacity="0.9">
    <ellipse cx="96" cy="50" rx="2.2" ry="1.1" transform="rotate(0 96 50)"/>
    <ellipse cx="50" cy="96" rx="2.2" ry="1.1" transform="rotate(90 50 96)"/>
    <ellipse cx="4" cy="50" rx="2.2" ry="1.1" transform="rotate(0 4 50)"/>
    <ellipse cx="50" cy="4" rx="2.2" ry="1.1" transform="rotate(90 50 4)"/>
  </g>
  <circle cx="50" cy="50" r="42" fill="none" stroke="#ffffff" stroke-width="0.3" opacity="0.4"/>
</svg>
